<svg viewBox="0 0 155 197" fill="none" xmlns="http://www.w3.org/2000/svg">
  <path d="M154.665 28.9579C154.664 28.3099 154.459 28.1509 153.826 27.9889C153.193 27.8269 50.5 0.148904 50.5 0.148904C49.661 -0.0550964 49.3199 -0.0440964 48.4199 0.148904L0.821954 12.5119C0.419954 12.6029 0.371963 13.1339 0.805963 13.2549L116.296 47.2539L116.311 47.2639C116.675 47.3789 116.848 47.6199 116.873 47.9619V98.2729C116.85 98.6379 116.732 98.8379 116.345 98.7419L116.335 98.7389C111.606 97.2779 76.952 86.5669 76.542 86.4349C76.122 86.3029 75.904 86.4859 75.904 86.8159C75.904 87.2279 75.8559 180.579 75.8559 195.591C75.8559 196.235 76.461 196.421 76.896 195.862C76.896 195.862 116.291 146.731 116.498 146.455C116.764 146.101 116.873 145.878 116.873 145.298V99.1849C116.885 98.9479 117.014 98.7829 117.118 98.6849L154.063 65.0479C154.446 64.6569 154.653 64.3139 154.664 63.6259C154.669 58.2049 154.681 29.4099 154.665 28.9579Z" fill="currentColor"/>
</svg>
